<?xml version="1.0" encoding="UTF-8"?>
<svg xmlns="http://www.w3.org/2000/svg" width="192" height="24" version="1.1">
  <!-- Generated by tools/generate-aurorae.py — do not hand-edit. -->
  <g id="active-center">
    <rect x="0" y="0" width="24" height="24" fill="#0083bc"/>
    <path fill="#e8f6ff" d="M5,14 L12,6 L19,14 Z"/>
  </g>
  <g id="hover-center" transform="translate(24,0)">
    <rect x="0" y="0" width="24" height="24" fill="#2ab0e0"/>
    <path fill="#e8f6ff" d="M5,14 L12,6 L19,14 Z"/>
  </g>
  <g id="pressed-center" transform="translate(48,0)">
    <rect x="0" y="0" width="24" height="24" fill="#0083bc"/>
    <path fill="#e8f6ff" d="M5,14 L12,6 L19,14 Z"/>
  </g>
  <g id="inactive-center" transform="translate(72,0)">
    <rect x="0" y="0" width="24" height="24" fill="#000a4f"/>
    <path fill="#7aa0c0" d="M5,14 L12,6 L19,14 Z"/>
  </g>
  <g id="deactivated-center" transform="translate(96,0)">
    <rect x="0" y="0" width="24" height="24" fill="#040017"/>
    <path fill="#7aa0c0" d="M5,14 L12,6 L19,14 Z"/>
  </g>
  <g id="hover-inactive-center" transform="translate(120,0)">
    <rect x="0" y="0" width="24" height="24" fill="#000a4f"/>
    <path fill="#7aa0c0" d="M5,14 L12,6 L19,14 Z"/>
  </g>
  <g id="pressed-inactive-center" transform="translate(144,0)">
    <rect x="0" y="0" width="24" height="24" fill="#040017"/>
    <path fill="#7aa0c0" d="M5,14 L12,6 L19,14 Z"/>
  </g>
  <g id="deactivated-inactive-center" transform="translate(168,0)">
    <rect x="0" y="0" width="24" height="24" fill="#040017"/>
    <path fill="#7aa0c0" d="M5,14 L12,6 L19,14 Z"/>
  </g>
</svg>
